<svg width="24" height="24" viewBox="0 0 24 24" fill="none" xmlns="http://www.w3.org/2000/svg" data-id="IcMarketingPromoBadge"><circle cx="12" cy="12" r="10" stroke="#0194f3" stroke-width="2" stroke-linecap="round" stroke-linejoin="round"></circle><path d="M8.5 17.5L15.5 6.5C15.5 6.5 14 8.00002 12 8.00002C10 8.00002 8 7.05 8 7.05M8 7.00002V7.00002C9.10457 7.00002 10 7.89545 10 9.00002V9.00002C10 10.1046 9.10457 11 8 11V11C6.89543 11 6 10.1046 6 9.00002V9.00002C6 7.89545 6.89543 7.00002 8 7.00002V7.00002ZM18 15V15C18 16.1046 17.1046 17 16 17V17C14.8954 17 14 16.1046 14 15V15C14 13.8954 14.8954 13 16 13V13C17.1046 13 18 13.8954 18 15Z" stroke="#91EC00" stroke-width="2" stroke-linecap="round" stroke-linejoin="round"></path></svg>